<svg width="204" height="50" viewBox="0 0 204 50" fill="none" xmlns="http://www.w3.org/2000/svg">
<path d="M9.384 5.73602C14.6 5.73602 18.776 6.92002 21.912 9.28802C25.08 11.624 26.664 15.928 26.664 22.2C26.664 28.376 25.128 32.728 22.056 35.256C18.984 37.752 15 39 10.104 39H0.119995V5.73602H9.384ZM7.992 11.448V33.288H10.584C13.176 33.288 15.144 32.488 16.488 30.888C17.832 29.256 18.504 26.36 18.504 22.2C18.504 19.352 18.168 17.144 17.496 15.576C16.824 14.008 15.912 12.936 14.76 12.36C13.608 11.752 12.184 11.448 10.488 11.448H7.992Z" fill="url(#paint0_linear_33_269)"/>
<path d="M53.4656 25.752C53.4656 26.808 53.4176 27.72 53.3216 28.488H37.5296C37.7856 30.632 38.3936 32.136 39.3536 33C40.3136 33.864 41.6416 34.296 43.3376 34.296C44.3616 34.296 45.3536 34.12 46.3136 33.768C47.2736 33.384 48.3136 32.808 49.4336 32.04L52.5536 36.264C49.5776 38.632 46.2656 39.816 42.6176 39.816C38.4896 39.816 35.3216 38.6 33.1136 36.168C30.9056 33.736 29.8016 30.472 29.8016 26.376C29.8016 23.784 30.2656 21.464 31.1936 19.416C32.1216 17.336 33.4816 15.704 35.2736 14.52C37.0656 13.304 39.2096 12.696 41.7056 12.696C45.3856 12.696 48.2656 13.848 50.3456 16.152C52.4256 18.456 53.4656 21.656 53.4656 25.752ZM46.0256 23.592C45.9616 19.688 44.5856 17.736 41.8976 17.736C40.5856 17.736 39.5616 18.216 38.8256 19.176C38.1216 20.136 37.6896 21.72 37.5296 23.928H46.0256V23.592Z" fill="url(#paint1_linear_33_269)"/>
<path d="M66.702 12.696C68.526 12.696 70.238 12.968 71.838 13.512C73.438 14.056 74.846 14.824 76.062 15.816L73.278 20.088C71.198 18.776 69.102 18.12 66.99 18.12C65.998 18.12 65.23 18.296 64.686 18.648C64.174 18.968 63.918 19.432 63.918 20.04C63.918 20.52 64.03 20.92 64.254 21.24C64.51 21.528 65.006 21.832 65.742 22.152C66.478 22.472 67.614 22.856 69.15 23.304C71.806 24.072 73.774 25.08 75.054 26.328C76.366 27.544 77.022 29.24 77.022 31.416C77.022 33.144 76.526 34.648 75.534 35.928C74.542 37.176 73.182 38.136 71.454 38.808C69.726 39.48 67.806 39.816 65.694 39.816C63.55 39.816 61.55 39.48 59.694 38.808C57.87 38.136 56.318 37.208 55.038 36.024L58.734 31.896C60.878 33.56 63.134 34.392 65.502 34.392C66.654 34.392 67.55 34.184 68.19 33.768C68.862 33.352 69.198 32.76 69.198 31.992C69.198 31.384 69.07 30.904 68.814 30.552C68.558 30.2 68.062 29.88 67.326 29.592C66.59 29.272 65.422 28.888 63.822 28.44C61.294 27.704 59.406 26.68 58.158 25.368C56.91 24.056 56.286 22.424 56.286 20.472C56.286 19 56.702 17.688 57.534 16.536C58.398 15.352 59.614 14.424 61.182 13.752C62.782 13.048 64.622 12.696 66.702 12.696Z" fill="url(#paint2_linear_33_269)"/>
<path d="M88.5131 13.512V39H80.9291V13.512H88.5131ZM84.6731 0.0720215C85.9851 0.0720215 87.0571 0.488022 87.8891 1.32002C88.7531 2.12002 89.1851 3.14402 89.1851 4.39202C89.1851 5.64002 88.7531 6.68002 87.8891 7.51202C87.0571 8.31202 85.9851 8.71202 84.6731 8.71202C83.3611 8.71202 82.2891 8.31202 81.4571 7.51202C80.6251 6.68002 80.2091 5.64002 80.2091 4.39202C80.2091 3.14402 80.6251 2.12002 81.4571 1.32002C82.2891 0.488022 83.3611 0.0720215 84.6731 0.0720215Z" fill="url(#paint3_linear_33_269)"/>
<path d="M117.948 15C116.284 15.672 113.836 16.008 110.604 16.008C112.268 16.712 113.484 17.576 114.252 18.6C115.02 19.624 115.404 20.952 115.404 22.584C115.404 24.216 114.972 25.688 114.108 27C113.244 28.28 111.996 29.288 110.364 30.024C108.764 30.76 106.876 31.128 104.7 31.128C103.676 31.128 102.7 31.032 101.772 30.84C101.516 30.968 101.308 31.176 101.148 31.464C101.02 31.72 100.956 31.992 100.956 32.28C100.956 32.76 101.132 33.144 101.484 33.432C101.868 33.688 102.62 33.816 103.74 33.816H107.58C109.532 33.816 111.244 34.136 112.716 34.776C114.188 35.416 115.324 36.296 116.124 37.416C116.924 38.536 117.324 39.8 117.324 41.208C117.324 43.864 116.172 45.928 113.868 47.4C111.596 48.904 108.3 49.656 103.98 49.656C100.876 49.656 98.428 49.32 96.636 48.648C94.844 48.008 93.58 47.096 92.844 45.912C92.14 44.728 91.788 43.24 91.788 41.448H98.604C98.604 42.216 98.748 42.824 99.036 43.272C99.356 43.72 99.916 44.056 100.716 44.28C101.516 44.504 102.668 44.616 104.172 44.616C106.252 44.616 107.692 44.36 108.492 43.848C109.292 43.368 109.692 42.664 109.692 41.736C109.692 40.968 109.388 40.36 108.78 39.912C108.172 39.464 107.26 39.24 106.044 39.24H102.348C99.724 39.24 97.756 38.776 96.444 37.848C95.164 36.888 94.524 35.672 94.524 34.2C94.524 33.272 94.796 32.376 95.34 31.512C95.884 30.616 96.62 29.88 97.548 29.304C95.948 28.44 94.78 27.432 94.044 26.28C93.34 25.096 92.988 23.672 92.988 22.008C92.988 19.16 94.012 16.904 96.06 15.24C98.108 13.544 100.812 12.696 104.172 12.696C106.732 12.76 108.892 12.504 110.652 11.928C112.444 11.352 114.284 10.504 116.172 9.38402L117.948 15ZM104.364 17.688C103.18 17.688 102.236 18.072 101.532 18.84C100.86 19.576 100.524 20.6 100.524 21.912C100.524 23.288 100.86 24.36 101.532 25.128C102.236 25.864 103.18 26.232 104.364 26.232C105.612 26.232 106.556 25.864 107.196 25.128C107.868 24.392 108.204 23.288 108.204 21.816C108.204 19.064 106.924 17.688 104.364 17.688Z" fill="url(#paint4_linear_33_269)"/>
<path d="M135.841 12.696C138.049 12.696 139.777 13.368 141.025 14.712C142.273 16.056 142.897 17.944 142.897 20.376V39H135.313V21.672C135.313 20.392 135.105 19.512 134.689 19.032C134.305 18.52 133.714 18.264 132.913 18.264C131.378 18.264 129.906 19.368 128.497 21.576V39H120.913V13.512H127.537L128.065 16.536C129.154 15.256 130.321 14.296 131.569 13.656C132.849 13.016 134.273 12.696 135.841 12.696Z" fill="url(#paint5_linear_33_269)"/>
<path d="M159.705 26.28H156.633V39H148.761V5.73602H159.657C164.201 5.73602 167.609 6.56802 169.881 8.23202C172.185 9.89602 173.337 12.44 173.337 15.864C173.337 18.008 172.825 19.8 171.801 21.24C170.777 22.648 169.161 23.848 166.953 24.84L175.401 39H166.521L159.705 26.28ZM156.633 20.856H159.945C161.705 20.856 163.017 20.456 163.881 19.656C164.777 18.856 165.225 17.592 165.225 15.864C165.225 14.264 164.745 13.096 163.785 12.36C162.857 11.624 161.417 11.256 159.465 11.256H156.633V20.856Z" fill="url(#paint6_linear_33_269)"/>
<path d="M192.176 4.92002C196.464 4.92002 200.16 6.28002 203.264 9.00002L199.28 13.176C198.096 12.28 196.992 11.64 195.968 11.256C194.976 10.84 193.824 10.632 192.512 10.632C190.048 10.632 188.08 11.608 186.608 13.56C185.136 15.48 184.4 18.408 184.4 22.344C184.4 26.6 184.96 29.624 186.08 31.416C187.2 33.176 188.944 34.056 191.312 34.056C192.976 34.056 194.48 33.688 195.824 32.952V25.416H191.504L190.736 19.848H203.456V36.312C201.728 37.432 199.824 38.296 197.744 38.904C195.664 39.512 193.584 39.816 191.504 39.816C186.448 39.816 182.64 38.344 180.08 35.4C177.52 32.424 176.24 28.072 176.24 22.344C176.24 18.696 176.928 15.56 178.304 12.936C179.712 10.312 181.616 8.32802 184.016 6.98402C186.448 5.60802 189.168 4.92002 192.176 4.92002Z" fill="url(#paint7_linear_33_269)"/>
<defs>
<linearGradient id="paint0_linear_33_269" x1="101.788" y1="0.0720215" x2="101.788" y2="49.656" gradientUnits="userSpaceOnUse">
<stop stop-color="#B6F829"/>
<stop offset="1" stop-color="#67DD0A"/>
</linearGradient>
<linearGradient id="paint1_linear_33_269" x1="101.788" y1="0.0720215" x2="101.788" y2="49.656" gradientUnits="userSpaceOnUse">
<stop stop-color="#B6F829"/>
<stop offset="1" stop-color="#67DD0A"/>
</linearGradient>
<linearGradient id="paint2_linear_33_269" x1="101.788" y1="0.0720215" x2="101.788" y2="49.656" gradientUnits="userSpaceOnUse">
<stop stop-color="#B6F829"/>
<stop offset="1" stop-color="#67DD0A"/>
</linearGradient>
<linearGradient id="paint3_linear_33_269" x1="101.788" y1="0.0720215" x2="101.788" y2="49.656" gradientUnits="userSpaceOnUse">
<stop stop-color="#B6F829"/>
<stop offset="1" stop-color="#67DD0A"/>
</linearGradient>
<linearGradient id="paint4_linear_33_269" x1="101.788" y1="0.0720215" x2="101.788" y2="49.656" gradientUnits="userSpaceOnUse">
<stop stop-color="#B6F829"/>
<stop offset="1" stop-color="#67DD0A"/>
</linearGradient>
<linearGradient id="paint5_linear_33_269" x1="101.788" y1="0.0720215" x2="101.788" y2="49.656" gradientUnits="userSpaceOnUse">
<stop stop-color="#B6F829"/>
<stop offset="1" stop-color="#67DD0A"/>
</linearGradient>
<linearGradient id="paint6_linear_33_269" x1="101.788" y1="0.0720215" x2="101.788" y2="49.656" gradientUnits="userSpaceOnUse">
<stop stop-color="#B6F829"/>
<stop offset="1" stop-color="#67DD0A"/>
</linearGradient>
<linearGradient id="paint7_linear_33_269" x1="101.788" y1="0.0720215" x2="101.788" y2="49.656" gradientUnits="userSpaceOnUse">
<stop stop-color="#B6F829"/>
<stop offset="1" stop-color="#67DD0A"/>
</linearGradient>
</defs>
</svg>
